<svg xmlns="http://www.w3.org/2000/svg" viewBox="0 0 47.72 71.61"><defs><style>.cls-1{fill:#1d1d1b;fill-rule:evenodd;}</style></defs><title>imp-dd-5</title><g id="Шар_2" data-name="Шар 2"><g id="Шар_1-2" data-name="Шар 1"><path class="cls-1" d="M3.85,8.37S5.72,3,10,2.13,15.47,0,15.47,0,17.1,3.25,22.1,6.75a28.43,28.43,0,0,0,10.62,4.38s6,8,9.5,12a34.75,34.75,0,0,0,5.5,5.37L45.6,30.75s-2.75-2.25-8-6.87S32.22,18,32.22,18L26.6,20.75l-9.75-3.13L17,12.37,13.1,8a13.55,13.55,0,0,0-9.25.37Z"/><path class="cls-1" d="M17,20.25.35,67.63s-1.5,5.12,1.75,3.75S8,69,9,65.88,24.1,22.63,24.1,22.63L17,20.25Z"/></g></g></svg>