<svg xmlns="http://www.w3.org/2000/svg" viewBox="0 0 41.75 49.63"><defs><style>.cls-1{fill:#1d1d1b;fill-rule:evenodd;}</style></defs><title>imp-dd-2</title><g id="Шар_2" data-name="Шар 2"><g id="Шар_1-2" data-name="Шар 1"><path class="cls-1" d="M6.88,43.75v5.88h-5V43.75H1.15A1.16,1.16,0,0,1,0,42.6V5.32A5.33,5.33,0,0,1,5.32,0H36.43a5.33,5.33,0,0,1,5.32,5.32V42.6a1.16,1.16,0,0,1-1.15,1.15H39.25v5.88h-5V43.75ZM5,8.75H36.12a2.14,2.14,0,0,1,2.13,2.13V22.12a2.14,2.14,0,0,1-2.13,2.13H5a2.13,2.13,0,0,1-2.12-2.13V10.88A2.13,2.13,0,0,1,5,8.75ZM9.25,1.63H31.88a1,1,0,0,1,1,1V4.88a1,1,0,0,1-1,1H9.25a1,1,0,0,1-1-1V2.62a1,1,0,0,1,1-1ZM6.25,34a3.38,3.38,0,1,1-3.38,3.38A3.38,3.38,0,0,1,6.25,34Zm28.38,0a3.38,3.38,0,1,1-3.38,3.38A3.37,3.37,0,0,1,34.63,34Z"/></g></g></svg>