<svg xmlns="http://www.w3.org/2000/svg" viewBox="0 0 58.24 49.17"><defs><style>.cls-1{fill:#1d1d1b;fill-rule:evenodd;}</style></defs><title>imp-dd-3</title><g id="Шар_2" data-name="Шар 2"><g id="Шар_1-2" data-name="Шар 1"><polygon class="cls-1" points="8.25 0.29 9.31 0.29 9.31 14.17 8.25 14.17 8.25 0.29 8.25 0.29"/><path class="cls-1" d="M5.5.3H6.56V14.17H5.5V.3Z"/><path class="cls-1" d="M2.75.3H3.81V14.17H2.75V.3Z"/><polygon class="cls-1" points="0 0.29 1.06 0.29 1.06 14.17 0 14.17 0 0.29 0 0.29"/><polygon class="cls-1" points="0 13.61 9.5 13.61 9.5 14.42 4.59 20.23 0 14.42 0 13.61 0 13.61"/><path class="cls-1" d="M4.38,17.42c1.24,0,2.25,7.11,2.25,15.88s-1,15.87-2.25,15.87S2.13,42.06,2.13,33.3s1-15.88,2.25-15.88Z"/><path class="cls-1" d="M54.85,28.73a51,51,0,0,1,.65,8.75c0,6.46-.87,11.69-1.94,11.69-3.3,0-1.68-37.52-1.44-49,0,0,1.75-1.75,4.38,6S58,27,58,27a3.59,3.59,0,0,0-3.15,1.69Z"/><path class="cls-1" d="M29.37,4.67a19.5,19.5,0,1,1-19.5,19.5,19.5,19.5,0,0,1,19.5-19.5Zm0,2.75A16.75,16.75,0,1,1,12.62,24.17,16.74,16.74,0,0,1,29.37,7.42Zm0,3.5A13.25,13.25,0,1,1,16.12,24.17,13.25,13.25,0,0,1,29.37,10.92Z"/></g></g></svg>