<svg xmlns="http://www.w3.org/2000/svg" viewBox="0 0 37.22 63.07"><defs><style>.cls-1{fill:#1d1d1b;fill-rule:evenodd;}</style></defs><title>imp-dd-1</title><g id="Шар_2" data-name="Шар 2"><g id="Шар_1-2" data-name="Шар 1"><path class="cls-1" d="M2.12,14.73h33a2.12,2.12,0,0,1,2.12,2.12V61a2.12,2.12,0,0,1-2.12,2.12h-33A2.12,2.12,0,0,1,0,61V16.85a2.12,2.12,0,0,1,2.12-2.12Zm16.16,6.8A14.53,14.53,0,1,1,8,25.78a14.47,14.47,0,0,1,10.27-4.25ZM19,23.12v5.69h4.55a15.23,15.23,0,0,0-.91-2.16c-1-1.9-2.26-3.18-3.64-3.53Zm0,7.19v4.86h5.64A23.66,23.66,0,0,0,24,30.31Zm0,6.36v5.12h5a23.93,23.93,0,0,0,.67-5.12Zm0,6.62V49c1.38-.34,2.66-1.63,3.64-3.53a14.76,14.76,0,0,0,.91-2.16ZM17.53,49V43.29H13a14.76,14.76,0,0,0,.91,2.16c1,1.9,2.26,3.19,3.64,3.53Zm0-7.19V36.67H11.88a23.93,23.93,0,0,0,.67,5.12Zm0-6.62V30.31h-5a23.66,23.66,0,0,0-.66,4.86Zm0-6.36V23.12c-1.38.35-2.66,1.63-3.64,3.53A15.23,15.23,0,0,0,13,28.81ZM5.28,35.17h5.11A25.5,25.5,0,0,1,11,30.31H6.62v-.08a13,13,0,0,0-1.34,4.94Zm20.89,0h5.11a13,13,0,0,0-1.34-4.94v.08H25.55a25.5,25.5,0,0,1,.62,4.86Zm5.12,1.5H26.18a25.71,25.71,0,0,1-.63,5.12h4.39v.08a13,13,0,0,0,1.35-5.2Zm-20.91,0H5.27a12.84,12.84,0,0,0,1.35,5.2v-.08H11a25,25,0,0,1-.63-5.12Zm18.73,6.62h-4A17.28,17.28,0,0,1,24,46.14a11.63,11.63,0,0,1-1.49,2.24,13.06,13.06,0,0,0,5-3.12,13.37,13.37,0,0,0,1.62-2Zm-17.7,0h-4a12.77,12.77,0,0,0,1.62,2,13,13,0,0,0,5,3.12,11.63,11.63,0,0,1-1.49-2.24,16.45,16.45,0,0,1-1.15-2.85Zm-4-14.48h4A16.34,16.34,0,0,1,12.56,26a11,11,0,0,1,1.49-2.24,13,13,0,0,0-5,3.11,13.37,13.37,0,0,0-1.62,2Zm17.7,0h4a13.37,13.37,0,0,0-1.62-2,13,13,0,0,0-5-3.11A11,11,0,0,1,24,26a17.16,17.16,0,0,1,1.15,2.84Z"/><path class="cls-1" d="M5.36,12.08,29.48.17c1-.49,1.78.11,1.78,1.33V12.08Z"/></g></g></svg>