<svg xmlns="http://www.w3.org/2000/svg" viewBox="0 0 52.54 49.13"><defs><style>.cls-1{fill:#1d1d1b;fill-rule:evenodd;}</style></defs><title>imp-dd-6</title><g id="Шар_2" data-name="Шар 2"><g id="Шар_1-2" data-name="Шар 1"><path class="cls-1" d="M0,29.94H7.94s7.44-2.63,11.69-1.25,4.93,3.5,10.68,4.5S42.56,32.38,43,35.13s-4.94,3.18-9.56,3.18-5.56-.81-5.44.75,3.44,1.88,8.13,2.07S45.69,38,47.38,36.5s8-.06,3.68,5-13.5,7.56-19.5,7.63-14.06-4.5-17.81-6-13.69,0-13.69,0L0,29.94Z"/><path class="cls-1" d="M49.63,14.75v4.31a1,1,0,0,1-.94.94H45.83a13.62,13.62,0,0,1-1.58,4.06l2,2a1,1,0,0,1,0,1.33l-3.05,3.05a1,1,0,0,1-1.33,0L40,28.52a13.53,13.53,0,0,1-5.77,2.08,8,8,0,0,1-1.78.09A13.51,13.51,0,0,1,19.42,20H16.75a.94.94,0,0,1-.94-.94V14.75a.94.94,0,0,1,.94-.94h2.8a13.53,13.53,0,0,1,1.74-4l-2.05-2a.92.92,0,0,1,0-1.32l3.05-3.05a.92.92,0,0,1,1.32,0l2.14,2.14A13.42,13.42,0,0,1,29.63,4V.94A.94.94,0,0,1,30.56,0h4.32a.94.94,0,0,1,.93.94V4.07a13.26,13.26,0,0,1,3.8,1.57l2.21-2.21a.94.94,0,0,1,1.33,0L46.2,6.48a.94.94,0,0,1,0,1.32L44,10a13.32,13.32,0,0,1,1.67,3.84h3a1,1,0,0,1,.94.94Zm-17-6.44a8.88,8.88,0,1,1-8.88,8.88,8.88,8.88,0,0,1,8.88-8.88Z"/></g></g></svg>