<svg xmlns="http://www.w3.org/2000/svg" viewBox="0 0 39.41 52.11"><defs><style>.cls-1{fill:#1d1d1b;fill-rule:evenodd;}</style></defs><title>imp-dd-4</title><g id="Шар_2" data-name="Шар 2"><g id="Шар_1-2" data-name="Шар 1"><path class="cls-1" d="M24.5,4.09A4.47,4.47,0,1,1,20,8.56,4.47,4.47,0,0,1,24.5,4.09Z"/><path class="cls-1" d="M.07,27.32l7.2-26C7.52.38,8.62-.34,9.41.17l8.05,5.15c.79.51,1.4,1.25,1.11,2.14l-6.6,21c-.28.89-1.2,1.12-2.14,1.11l-8.64-.07c-.94,0-1.37-1.24-1.12-2.15Z"/><path class="cls-1" d="M15.63,27.68l3.55-11s1.25-2.56,4.53-1,15.12,8.87,15.12,8.87a2.51,2.51,0,0,1,.32,2.76c-.72,1.71-2.82.79-2.82.79L24.9,22.42l-1.45,5.26Z"/><path class="cls-1" d="M18.13,34.77c3.13,2.56,6.57,5.65,6.57,5.65v8.84c0,3.72,5.63,3.87,5.63,0v-9a4.06,4.06,0,0,0-1.43-2.89c-1.11-.86-6-5.72-6-5.72V29.38H15.43c-.14,2.58-.44,2.83,2.7,5.39Z"/><path class="cls-1" d="M16.05,36.08h0a2.88,2.88,0,0,1,1.56,3.6L13.37,50.29a2.7,2.7,0,0,1-3.59,1.56h0a2.87,2.87,0,0,1-1.55-3.6l4.24-10.61a2.7,2.7,0,0,1,3.59-1.56Z"/></g></g></svg>