<?xml version="1.0" encoding="utf-8"?>
<!-- Generator: Adobe Illustrator 24.0.2, SVG Export Plug-In . SVG Version: 6.00 Build 0)  -->
<svg version="1.1" id="Шар_1" xmlns="http://www.w3.org/2000/svg" xmlns:xlink="http://www.w3.org/1999/xlink" x="0px" y="0px"
	 viewBox="0 0 30.7 36.9" style="enable-background:new 0 0 30.7 36.9;" xml:space="preserve">
<style type="text/css">
	.st0{fill-rule:evenodd;clip-rule:evenodd;fill:#62200C;}
</style>
<g>
	<path class="st0" d="M14.5,27.4c-0.1,0.1-0.1,0-0.1,0.2C14.6,27.6,14.6,27.6,14.5,27.4L14.5,27.4z M13.7,27
		c0.1-0.1,0.2-0.3-0.1-0.4c-0.1,0.1-0.2,0.2-0.1,0.3C13.7,27.1,13.6,27,13.7,27L13.7,27z M11.9,27.4l0.3,0c0-0.2-0.2-0.5-0.2-0.6
		c-0.1-0.1-0.2-0.4-0.4-0.5C11.5,26.6,11.8,27.1,11.9,27.4L11.9,27.4z M13.4,26.3c-0.1,0.1-0.1,0.3,0,0.4c0.1,0,0.1,0,0.1-0.2
		C13.6,26.2,13.5,26.3,13.4,26.3L13.4,26.3z M8.5,24.1C8.5,24.1,8.5,24.1,8.5,24.1c-0.1-0.1-0.2-0.1-0.3-0.1
		c-0.1-0.1-0.8-0.1-0.9-0.1l-0.6,0l-0.3,0l-0.2,0L6.2,24C6,24,5.7,24.1,5.5,24.2c-0.3,0.1-0.2,0.1-0.4,0.2c0,0-0.1,0-0.1,0
		c0,0-0.1,0-0.1,0c0,0-0.1,0-0.1,0c-0.5,0.2-0.5,0.3-0.7,0.4c-0.6,0.4-0.6,0.4-1,0.8c0,0-0.1,0.1-0.1,0.1C2.9,25.9,2.9,26,2.8,26
		l-0.4,0.5c-0.1,0.1-0.3,0.5-0.3,0.6l-0.2,0.3c0,0.1-0.1,0.1,0,0.3c-0.1,0.1,0-0.1-0.1,0.2c-0.2,0.4-0.3,1.9-0.2,2.4l0.1,0.8
		l0.1,0.3c0,0.2,0.4,1,0.4,1.1c0,0.2,0,0,0.1,0.2c0.1,0.1,0.1,0.1,0.1,0.2c0.1,0,0.2,0,0.2,0c-0.1,0.2,0.1,0.5,0.3,0.6
		C3,33.8,3,33.9,3.2,33.8c-0.1,0,0,0,0,0.1c0,0.2,0.2,0.3,0.5,0.6c0.1,0.1,0.5,0.4,0.7,0.5l0.4,0.2c0.1,0.1,0.2,0.1,0.4,0.2
		c0.2,0.1,0.4,0.2,0.7,0.2c0.2,0.2,1.1,0.2,1.3,0.2c0.2,0,0.8,0,1-0.1c0.1-0.1,0,0,0.1-0.1c0.1,0,0.2,0,0.3,0c0.1,0,0.1-0.1,0.3-0.1
		l0-0.3l0-0.2c0.1,0,0.1,0,0.1,0.1l0,0.3l0.2,0c0.2,0,0.9-0.4,1.1-0.6c0.1,0,0.1,0,0.1,0c0.8-0.3,0.8-0.7,0.9-0.8
		c0-0.1,0.1-0.1,0.2-0.2c0.1-0.1,0.1-0.1,0.2-0.2c0.2-0.2,0.2-0.3,0.3-0.6c0.1-0.1,0.1-0.2,0.1-0.3c0.1-0.2,0.3-0.7,0.4-1
		c0.1-0.4,0.2-0.8,0.3-1.2c-0.1-0.1-0.1-0.1-0.1-0.3c0-0.5-0.1-0.4-0.5-0.4c-0.4,0-0.4-0.1-0.5,0.3c-0.3,0.1-0.2,0.1-0.3,0l-0.1-0.1
		c-0.2,0.1,0,0.2-0.3,0.1c-0.2,0-0.1,0-0.2-0.1c-0.1,0-0.1-0.1-0.1-0.1l-0.1,0.1c-0.1,0.1-0.2,0-0.5,0c0-0.1,0,0,0-0.1
		c0-0.2-0.1-0.2-0.1-0.4C9.7,29,9.7,29.2,9.6,29c0.3-0.5,0.1-0.8,0.1-0.9c0-0.2,0.1-0.2,0-0.4c0-0.5,0.1-0.4,0-0.8
		c0-0.3-0.1-0.6-0.1-0.8c-0.1,0.1,0,0-0.1,0.1l-0.1,0.1c-0.1,0,0,0-0.1,0.1c0-0.1,0-0.2-0.1-0.3c0-0.2,0-0.1,0-0.3c0.1,0-0.1,0,0,0
		c0.1,0.1-0.1,0.1,0,0c0-0.3,0.2-0.4,0.3-0.6C9.2,24.8,9.1,25,9,25.1c-0.1,0,0,0-0.2,0l-0.1,0c0-0.4,0-0.2-0.1-0.4
		c0.1-0.2,0.2-0.1,0.2-0.4L8.5,24.1L8.5,24.1z M12.4,23.8c-0.1-0.1,0,0-0.1-0.1c-0.1-0.1,0.1,0.1,0,0l-0.1-0.1
		c-0.1-0.2,0-0.1-0.1-0.3c-0.4-0.5-0.3-0.2-0.5-0.4c0-0.2,0-0.1-0.2-0.1c-0.1,0.2-0.1,0.9-0.1,1.2c0.1,0.1,0.2,0.1,0.3,0.2
		c0.2,0.3,0,0.1,0.3,0.3c0.1,0.1,0,0.1,0.2,0.3c0.2,0.2,0.1,0,0.4,0.4c0.1,0.1,0.1,0.1,0.1,0.2c0.2,0.2,0,0.1,0.2,0.3
		c0.2,0.2,0.3,0.4,0.4,0.4c0.3,0,0.1,0,0.2,0c-0.1-0.3-0.1-0.1-0.3-0.3c0.1-0.2,0.1-0.1,0.1-0.3c0-0.1-0.2-0.6-0.3-0.8
		C12.8,24.5,12.5,24.1,12.4,23.8L12.4,23.8z M25,23c0-0.2-0.2-0.3-0.4-0.5l-0.4-0.4c-0.1-0.1-0.3-0.2-0.4-0.4
		c-0.5-0.5-0.7-0.6-1.2-1.3c-0.2-0.2-0.4-0.6-0.6-0.6c0,0-0.3,0-0.4,0c0,0.2,0.4,0.7,0.6,0.9c0.2,0.3,0.4,0.5,0.7,0.8l0.7,0.8
		c0.2,0.2,0.2,0.2,0.4,0.4c0.1,0.2,0.2,0.3,0.4,0.4c0.2,0,0,0,0.2-0.1c0,0,0,0,0,0C24.9,22.9,24.7,23.1,25,23L25,23z M24.6,21.9
		l0.1,0.1c0.1,0.1,0,0,0.1,0.2c0.1,0.1,0.2,0.2,0.3,0.3c0.1,0.2,0.4,0.4,0.5,0.4c0-0.3,0-0.1-0.2-0.3l-0.3-0.4c0.1-0.1,0,0,0.2,0
		c0,0.1,0,0.1,0.1,0.1c0,0,0,0,0.1,0.1c0.1,0,0,0,0.1,0c0.1,0.1,0.1,0.2,0.2,0.3l0.1,0.1c0,0.2,0.1,0.8-0.4,0.9c-0.3,0,0,0-0.3-0.1
		c0,0.1-0.1,0.2-0.2,0.3c-0.2,0-0.2,0-0.3-0.1l-0.2-0.1c-0.1-0.1-0.1-0.2-0.2-0.3c-0.1-0.1-0.1-0.1-0.3-0.2c0-0.1-0.9-0.9-1-1
		c-0.2-0.2-0.2-0.2-0.4-0.3c-0.1-0.3-0.5-0.7-0.7-0.9c-0.2-0.2-0.6-0.8-0.7-0.9l-0.1,0.1c-0.2,0.2-0.4,0.6-0.4,0.9
		c-0.2,0.1-0.2,0.3-0.2,0.5c0,0.2-0.1,0.4-0.1,0.6c-0.1,1.3,0,1.4,0,1.8c0,0.1,0,0.3,0.1,0.4c0.2,0.3-0.2-0.2,0.1,0.1l0.1,0.3
		c0.1,0.2,0.2,0.2,0.1,0.4c0.1,0,0.1,0,0.2,0.2c0.2,0.4,0.5,0.7,0.4,0.9l0.1,0c0.2,0.2,0.2,0.4,0.2,0.4c0.1,0.1,0.1,0,0.3,0.1
		c0.2,0.2,0,0.2,0.2,0.3c0.2,0.1,0.1,0.1,0.2,0.2c0.1,0.1,0.1,0,0.2,0.1l0,0c0.2,0.2,0.2,0.2,0.4,0.2c0,0,0,0,0,0
		c0.2,0.1,0.3,0.3,0.8,0.4c0.2,0.1,0.1,0,0.3,0.1c0.3,0.1,0,0,0.3,0.1c0,0,0.5,0.1,0.6,0.1c0.6,0.1,0.5-0.1,1.4,0.1
		c0-0.1,0.1,0.1,0,0c0,0,0,0,0,0c0,0,0,0,0,0c0.3,0,0.2,0,0.3,0l0,0c0,0,0,0,0,0l0.4-0.2c0.2-0.1,0.5-0.2,0.7-0.4
		c0.1-0.1,0,0,0.1-0.1c0.3-0.2,0.2-0.2,0.4-0.3c0.1-0.1,0.3-0.2,0.4-0.4l0.5-0.7c0.1-0.2,0-0.2,0.2-0.2c-0.1-0.1-0.1,0,0.1-0.6
		c0.1-0.2,0.1-0.4,0.2-0.6c0.1-0.5,0.2-0.9,0.1-1.4l-0.1-0.9c-0.2-0.9-0.2-0.6-0.4-1.3c-0.1-0.2-0.1-0.2-0.2-0.2
		c-0.1-0.1-0.1-0.2-0.2-0.3c0-0.1-0.1-0.2-0.2-0.3c0-0.1,0-0.1-0.1-0.2c-0.1-0.1,0,0-0.1-0.1c0-0.1-0.1-0.2-0.2-0.3
		c-0.1-0.1-0.1-0.2-0.2-0.2c-0.1-0.1,0-0.1-0.1-0.2c-0.1-0.1,0,0-0.1-0.1l-0.1-0.1c0,0-0.1-0.1-0.1-0.1c-0.1-0.1-0.1-0.1-0.2-0.2
		l-0.1-0.1c0,0,0,0,0,0l-0.1-0.1c-0.1-0.1-0.4-0.3-0.5-0.3c-0.1-0.1,0,0-0.1-0.1c-0.1-0.1,0,0-0.1-0.1L26,18.6
		c-0.2-0.1-0.3-0.1-0.4-0.1c-0.1,0-0.1,0-0.1,0c0-0.2,0,0-0.1-0.1c-0.1-0.1-0.1-0.1-0.3-0.1c-0.1-0.1,0,0-0.1-0.1
		c-0.2-0.1-1-0.1-1.3,0c0,0,0,0,0,0l-0.2,0.1c-0.2,0-0.3,0-0.4,0.1c-0.2,0.1-0.2,0.1-0.3,0.2c0,0.2,0.1,0,0.1,0.2
		c0.1,0.2,0,0.1,0,0.3c0,0.2,0.1,0.1-0.1,0.3c-0.1,0.1-0.1,0.1-0.2,0.2C22.8,20,24.3,21.8,24.6,21.9L24.6,21.9z M21.2,17.8
		C21.2,17.9,21.2,17.8,21.2,17.8c0.2,0.2,0.3,0.2,0.3,0C21.3,17.6,21.3,17.6,21.2,17.8L21.2,17.8z M15,20.3L14.1,21
		c-0.2,0.1-0.3,0.3-0.5,0.4c0,0-0.1,0.1-0.1,0.1c-0.1,0.2,0,0-0.1,0.1c-0.1,0.2-0.1,0.1-0.2,0.2c0.1,0.2,0.3,0.9,0.4,1
		c0.2,0.4,0.1,0.2,0.3,0.4c0.2,0.2,0.5,1,1.1,1.1c0.6,0.1,0.4,0,0.7,0c0.3,0,0.1,0.1,0.6,0c0.1-0.4,0.2-0.3,0.2-0.8
		c0.2-0.1,0.1,0,0.2-0.2c0.1-0.3,0.3-0.6,0.2-0.9c0.2-0.1,0.2-0.1,0.3-0.4c0.1-0.3,0.5-1.2,0.5-1.4c0.1-0.1,0.1,0,0.1-0.2
		c0.2-0.6,1.1-2.9,1.2-3.2c-0.3,0.1-0.2,0-0.4,0.2l-0.1,0.1c-0.1,0-0.2,0.1-0.2,0.1c-0.1,0.1,0,0-0.1,0.1c0,0,0,0.1,0,0.1
		c-0.3,0-0.3,0-0.5,0.2C17.3,18.3,15.1,20.1,15,20.3L15,20.3z M19.2,16.8c-0.2,0-0.5,0.3-0.6,0.5c0.2,0,0.3,0,0.4-0.1
		C19.2,17,19.2,17,19.2,16.8L19.2,16.8z M8.5,13.5c0,0.1,0.3,0.5,0.5,0.7c0.3,0.5,0.5,1,0.7,1.2l1,0.9c0,0.1,0,0.1,0.1,0.2
		c0,0,0.1,0.1,0.1,0.1l0.2,0.2c0.1,0.1,0.2,0.2,0.4,0.4c0.3,0.3,0,0.4,0.2,0.6c0.2,0.2,0.1,0.6,0.2,1c0.1,0.5,0,0.5,0,0.6
		c0,0.1,0.1,0.1,0.2,0.2c0.3,0.2,0.3,0.4,0.2,0.7c0.1,0.1,0.1,0.1,0.1,0.2c0.1,0.2,0.1,0.2,0.1,0.2c0.1,0.1-0.1,0,0.3,0.3l0.1,0.1
		c0.1,0,0.5,0,0.2-0.2c0.4-0.4,0.9-0.7,1.4-1.2l3.9-3.2c0.3-0.2,0.3-0.2,0.3-0.4c-0.1-0.1-0.2-0.1-0.2-0.1c-0.1-0.1,0,0-0.1-0.2
		c-0.1-0.3,0-0.1-0.3-0.2l0-0.3c-0.2,0-0.4,0.1-0.3-0.2c0.1-0.6,0.7-0.4,0.9-0.9l-0.4,0c-0.2,0.3-0.2,0.1-0.5,0.2
		c-0.2,0.1-0.3,0.2-0.4,0.3c-0.5-0.1-0.8,0-0.9-0.4c0-0.2,0-0.1,0-0.3c-0.1,0-0.2-0.1-0.3-0.1c0,0,0,0,0,0l-0.2-0.1
		c-0.4-0.4,0-0.2-0.8-0.5c-0.3-0.1,0-0.1-0.7-0.3c-0.9-0.3-1.5-0.4-2.1-1.1c-0.5-0.5-0.4-0.3-0.7-0.6c-0.4-0.4-1.3-1.3-1.8-1.3
		c-0.2,0.2-0.4,0.5-0.5,0.8c-0.3,0.5-1.1,1.1-1.2,1.4c-0.3,0.8-0.4,0.6-0.5,0.8C8,13.1,8.2,13.4,8.5,13.5L8.5,13.5z M19.3,13.1
		c0.4,0,0.6,0,0.7-0.3c0.1-0.1,0.4-1,0.4-1.1c-0.2-1-0.2-0.4-0.4-1c-0.1-0.4,0-0.4-0.3-0.6c-0.3-0.3-0.2-0.2-0.7-0.3
		c-0.3-0.1-0.6-0.1-0.8-0.2c-0.5-0.1-1.3-0.2-1.8-0.3c-0.4-0.1-1-0.4-1.3-0.7c-0.8-0.7-0.4-0.3-1.2-0.7c-0.5-0.2-1.5-0.9-2-1
		c-0.1,0.1-0.3,0.4-0.4,0.6c-0.3,0.6-0.6,0.5,0.7,1.6c0.6,0.5,0.5,0.8,0.9,1c1.4,0.7,1.3,1.1,2.2,1.6c0.5,0.3,1,0.7,1.1,0.8
		c0.1,0.1,0.3,0.1,0.4,0.1c0.2,0.1,0,0.1,0.3,0.2c0.3,0.1,0.5,0.2,0.7,0.3c0.4,0.2,0.2-0.2,0.7,0l0.7,0.3L19.3,13.1L19.3,13.1z
		 M22.2,10.9c0,0.2,0,0.3-0.1,0.5c-0.2,0.2-0.2,0.1-0.4,0.1c0,0.2,0.1,0.2,0.2,0.2c0.1,0,0,0,0.1,0.1c0,0.3,0,0.2-0.1,0.3
		c-0.4,0.3,0.1,0.1-0.7,0.3c-0.3,0.1-0.3,0.2-0.4,0.2c0-0.2,0.2-0.1,0-0.5l-0.1,0c-0.1,0.2-0.3,0.7-0.4,0.9
		c-0.1,0.2-0.2,0.3-0.2,0.4c-0.1,0.2,0,0.2-0.2,0.4c-0.4,0.4-0.1,0-0.4,0.5c-0.1,0.2-0.6,0.5-0.6,1.1c0,0,0.2,0.1,0.2,0.1
		c0.2,0.1,0,0.3,0.3,0.4c0,0.1,0,0.1,0.1,0.2c0.3,0.2,0,0.1,0.4,0.5c0.4,0.5,0.1,0.6,0.6,0.7c0,0.2-0.1,0.2,0.1,0.4
		c0.1,0.1,0.3,0.1,0.4,0.2c0.1-0.2,0-0.1,0.2-0.4c0.6,0,0.5,0.3,0.9,0.3c0.1-0.1,0.1-0.1,0.3-0.2c0.1-0.1,0.4,0,0.7-0.2
		c0.4-0.2,0.3-0.1,0.8-0.1c0.2,0,0.2-0.1,0.3-0.1c0.1,0,0.8,0,0.9,0.1l0.8,0.2c0.7,0.2,1.4,0.7,1.9,1c0.1,0.2,0.2,0.1,0.4,0.3
		c0.1,0.1,0.1,0.1,0.2,0.2l0.2,0.1c0,0,0.1,0.2,0.2,0.2c0.1,0.2,0,0,0.4,0.5c0,0,0,0.1,0.1,0.1c0.1,0.1,0.1,0.1,0.1,0.2
		c0.1,0.3,0.3,0.4,0.6,1c0,0,0,0,0,0c0,0,0,0,0,0c0.4,0.7,0.5,1.1,0.6,2c0,0.2,0.1,0.4,0.1,0.5c0.1,0.8,0,1.7-0.2,2.5
		c0,0.1-0.2,0.6-0.2,0.7l-0.5,1l-0.5,0.6c0,0.1-0.1,0.1-0.1,0.2L29,28.2c-0.1,0-0.1,0-0.2,0c0.1,0.2,0,0,0,0.2c-0.1,0,0,0-0.1,0
		c0,0.2-0.1,0.2-0.2,0.3c0,0,0,0,0,0c0,0,0,0,0,0c-0.2,0.1-0.2,0.3-0.5,0.4c-0.1,0-0.1,0-0.1,0c-0.1,0,0,0-0.1,0c0,0,0,0,0,0
		l-0.6,0.2c-0.1,0-0.1,0.1-0.2,0.1c0,0,0,0,0,0c-0.7,0-0.3,0.1-0.7,0.1c-0.2,0-0.3,0.1-0.4-0.1c0,0.1,0,0.1-0.1,0.2
		c-0.5,0-0.8,0.1-1.2-0.2c-0.1,0-0.2-0.1-0.2-0.1c0,0,0,0,0,0c-0.1,0,0,0-0.1,0c-0.3-0.1-0.5-0.2-0.7-0.3c-0.1,0,0,0-0.1-0.1
		c-0.3-0.2,0.1,0-0.2-0.1c-0.1,0-0.2,0-0.3-0.1c-0.1-0.1-0.3-0.2-0.4-0.3c-0.3-0.2-0.1-0.3-0.5-0.3c0.1-0.2,0-0.1-0.2-0.2
		c0,0-0.2-0.1-0.2-0.1c0,0,0,0,0-0.1c0,0,0,0,0,0l0-0.1c0,0,0,0,0,0c-0.3-0.1-0.3-0.1-0.4-0.2c-0.1-0.2,0,0.1,0-0.1
		c-0.1-0.2-0.3-0.2-0.3-0.5c-0.2,0,0,0.1-0.1-0.1c-0.1-0.1-0.1-0.3-0.2-0.4l0,0c-0.2-0.2-0.1-0.6-0.3-0.7c0,0,0,0,0,0
		c-0.1,0-0.1-0.2-0.1-0.2c0-0.1,0-0.2-0.1-0.3c-0.2-0.3-0.2-0.4-0.2-0.7c-0.1-0.5-0.2-0.6-0.2-1.3c-0.2-0.1,0.2,0,0,0
		c-0.1,0,0.1,0.1,0,0c0-1.1,0.4-2.6,0.4-2.7c0-0.2,0.3-0.7,0.4-0.8c0,0,0-0.1,0.1-0.2c0.3-0.5,0.5-0.1,0.2-0.9
		c-0.1-0.3-0.1-0.4-0.1-0.7c-0.6-0.2-0.2,0-0.4-0.4c-0.2,0-0.1,0.1-0.2,0.2l-0.4,1c-0.2,0.4-0.3,0.8-0.5,1.2c-0.1,0.1,0,0-0.1,0.1
		c-0.3,0.3-0.1,0.2-0.4,0.8c-0.1,0,0,0,0,0c0,0,0,0,0,0l0,0c0,0.2-0.1,0.3-0.1,0.5c-0.1,0.2-0.1,0.2-0.1,0.3l-0.1,0.3
		c-0.1,0.2-0.1,0-0.2,0.4c-0.1,0.3-0.1,0.1-0.2,0.4c0,0.1-0.1,0.4-0.2,0.5c-0.1,0.2-0.1,0.1-0.1,0.2c0,0.1,0,0.3-0.1,0.5
		c0,0.1-0.1,0-0.1,0.2c0,0,0,0.3,0,0.4c0.2,0,0.3,0,0.4-0.1c0.1-0.1,0.3-0.1,0.4-0.2l0,0.1c0.1,0.1-0.1,0,0,0.1
		c0.2,0.1-0.1-0.1,0.2,0c0,0.2,0,0.2-0.1,0.3c-0.1,0.2,0,0.1-0.1,0.2c-0.1,0.1-0.1,0.1-0.2,0.2c0,0,0,0.1-0.2,0.1
		c-0.2,0.7,0,0-0.3,0.6l0,0.1c-0.1,0.2-0.1,0-0.3,0.3c0,0.1-0.1,0.1-0.1,0.2c-0.4,0.5,0-0.1-0.4,0.6C16,27,16,27.4,16,27.6
		c0,0.4,0,0.3-0.2,0.4c0,0.2,0.1,0.1,0.1,0.3c0,0,0,0,0,0l-0.1-0.1c-0.1-0.1,0.1-0.1-0.1-0.1c-0.3,0.3,0.1,0.2-0.2,0.5
		c-0.2,0.1-0.1,0.1-0.1,0.3l-0.1,0c-0.1,0,0,0-0.1-0.1l0,0.2l-0.4,0.1c-0.1,0-0.1,0-0.1,0.1l-0.1,0.1c0,0,0,0,0,0
		c-0.1,0-0.1-0.1-0.2,0.3l-0.1,0.4c-0.1,0.2-0.3-0.2-0.4,0.7c0,0.4-0.1,0.6-0.2,1c-0.1,0.7-0.2,0.6-0.3,0.9c0,0.1-0.1,0.3-0.1,0.5
		c-0.1,0.2-0.2,0.2-0.1,0.5c-0.2,0.1-0.1,0.1-0.3,0.3c-0.1,0-0.1,0.1-0.1,0.2c-0.3,0.2-0.1,0.1-0.3,0.3l-0.9,0.9
		c-0.1,0.1-0.2,0.1-0.2,0.1c-0.1,0.2,0,0-0.3,0.3c-1.6,1.7-5.2,1-7.3,0.4c-0.1-0.1-0.2-0.2-0.3-0.2c-0.4-0.2-0.4-0.2-0.5-0.4
		c-0.1-0.1-0.1,0-0.2-0.1c-0.1-0.1-0.2-0.2-0.3-0.3l-0.3-0.2c0,0,0,0,0,0c0-0.2-0.2-0.3-0.2-0.3c-0.2-0.1,0,0-0.1-0.2
		c-0.1-0.1,0-0.1-0.1-0.1l0-0.2l-0.2,0c-0.1-0.1-0.1-0.2-0.1-0.4c-0.1-0.1,0-0.2-0.2-0.2c-0.1-0.2-0.1-0.4-0.2-0.5l-0.1-0.1
		c0-0.1,0,0,0-0.1c-0.2-0.6,0-0.2-0.3-0.5c0-0.2,0.1-0.3-0.1-0.6c-0.1,0-0.2-0.6-0.2-0.8c0-0.1,0-0.1,0-0.2c0-0.2,0-0.2-0.1-0.3
		c-0.1,0,0-0.5,0-0.6c0-0.3,0.1-0.4,0-0.6c0-0.2-0.1,0,0-0.3c0-0.1,0.1-0.2,0.1-0.3c0-0.2,0-0.1,0-0.3c0.1-0.2,0.1-0.2,0.1-0.4
		c0-0.1,0-0.1,0-0.3c0-0.1,0.1-0.2,0.1-0.3c0.1-0.3,0-0.1,0.1-0.4c0.2-0.3,0.1-0.4,0.3-0.6c0.3-0.4,0-0.2,0.3-0.5
		c0.3-0.3,0.1-0.3,0.4-0.6c0.3-0.3,0-0.2,0.3-0.4L1.9,25c0,0,0.1-0.1,0.1-0.1c0.2-0.3-0.1,0,0.3-0.4c0.2-0.2,0-0.1,0.4-0.3
		c0.4-0.3,0-0.1,0.6-0.5c0.3-0.2-0.1,0,0.6-0.3c0.3-0.1,0.1-0.1,0.3-0.2c0.1,0,0.2,0,0.3-0.1C5,22.8,4.9,23,5.1,22.9
		c0.2-0.1,0-0.1,0.4-0.1c0.5,0,0-0.1,0.7-0.1c0.3,0,0.2-0.1,0.4-0.1c0.1,0,0.1,0,0.4,0c0.5-0.1,0.4,0,0.7,0c0.3,0,0,0,0.3,0.1
		c0.3,0,0.2,0,0.4,0L8.2,22c0-0.6,0-1.1,0.1-1.7c0.1-0.3,0-0.4-0.2-0.6c-0.3-0.3-0.1-0.2-0.4-0.5c-0.3-0.3-0.6-0.6-0.9-0.9
		c-0.8-0.6-1.7-1.1-2-1.4c-0.4-0.4-1-0.4-1.8-0.9l-0.8-0.5c0,0-0.1-0.2-0.2-0.2C2,15.1,2,15.1,1.9,15c-0.1-0.1-0.1-0.1-0.2-0.2
		c0-0.2-0.2-0.7-0.3-0.9c-0.1-0.5,0-1.5,0.2-2c0-0.1,0.2-0.6,0.4-0.7c0,0,0,0,0,0c0.2-0.2,0.1-0.5,0.3-0.8c0.1-0.1,0.2-0.2,0.2-0.3
		c0.2-0.3,0-0.1,0.3-0.5c0.2-0.2,0.8-0.9,0.8-1.1C4,8.4,4,8.2,4.1,7.9c0.4-0.7,0.7-1,1.1-1.5c0.3-0.4,0.7-1,1-1.2l0.6-0.6
		c0.1-0.1,1.1-0.8,1.4-1l0.8-0.3c0.3-0.1,0.5,0,0.7-0.5c0.3-0.5,0.5-0.4,0.4-0.7c0-0.2-0.1-0.2-0.1-0.5c0-0.3,0.1-0.3,0.1-0.5
		c0-0.9-0.2-0.8,0.6-1c0.1,0,0.4,0,0.5-0.1c1.3-0.1,2.7,0.4,3.2,1.5C14.7,1.9,15,3,14.6,3.4c-0.2,0.2-0.7,0.1-0.9,0.3
		c-0.3,0.3-0.1,0.5-0.1,0.9l-0.4,0c-0.3,0.5-0.1,0.5,0,0.7c0.1,0.2,0.5,0.5,0.8,0.7c1.6,0.9,2,0.6,2.8,1.1c0.4,0.3,0.7,0.4,0.9,0.5
		C18,7.8,18.3,8,18.6,8.2c0.8,0.4,0.6,0.4,1.1,0.8c0.7,0.5,0.6,0.4,0.9,0.4c0.3-0.1,1.7,0.3,1.5,1.1C22.1,10.6,22.1,10.8,22.2,10.9
		L22.2,10.9z"/>
</g>
</svg>
