<svg xmlns="http://www.w3.org/2000/svg" viewBox="0 0 33.63 33.63"><defs><style>.cls-1{fill:#fff;fill-rule:evenodd;}</style></defs><title>eye</title><g id="Шар_2" data-name="Шар 2"><g id="Шар_1-2" data-name="Шар 1"><path class="cls-1" d="M5.19,16.74V17c.07.13.1.32.16.46a8.53,8.53,0,0,0,1.73,2.29l.64.58v0l.11.08A16,16,0,0,0,9.78,21.8a13.78,13.78,0,0,0,3.09,1.35,14,14,0,0,0,4,.6A13.93,13.93,0,0,0,24,21.7a16.88,16.88,0,0,0,2-1.48l.15-.13a8.7,8.7,0,0,0,2-2.34,5.61,5.61,0,0,0,.3-.84v-.27a5,5,0,0,0-.34-.83,7.9,7.9,0,0,0-1-1.33L26.7,14a.93.93,0,0,0-.15-.13,11.87,11.87,0,0,0-1.23-1.08c-.23-.16-.43-.32-.68-.49l-.7-.44a13.67,13.67,0,0,0-14.71.28A14.86,14.86,0,0,0,7,14c-.11.1-.18.18-.29.3a4,4,0,0,0-.29.29l-.26.3-.25.33a3.93,3.93,0,0,0-.72,1.55Zm15.09.43a3.35,3.35,0,0,0-3.08-3.69,3.36,3.36,0,1,0-.76,6.67,3.49,3.49,0,0,0,2.62-.77,3.32,3.32,0,0,0,1.22-2.21ZM16.49,11.6a5.39,5.39,0,0,1,5.8,4.87,5,5,0,0,1-.36,2.29A5.19,5.19,0,0,1,21.16,20a6,6,0,0,1-1.87,1.47,5.77,5.77,0,0,1-6.51-1.12,5.42,5.42,0,0,1-.86-1.14,5.09,5.09,0,0,1,.56-5.63l.32-.34a5.4,5.4,0,0,1,3.69-1.66ZM1.38,0H32.25a1.38,1.38,0,0,1,1.38,1.38V32.25a1.38,1.38,0,0,1-1.38,1.38H1.38A1.38,1.38,0,0,1,0,32.25V1.38A1.38,1.38,0,0,1,1.38,0Z"/></g></g></svg>